<?xml version="1.0" standalone="no"?>
<!DOCTYPE svg PUBLIC "-//W3C//DTD SVG 20010904//EN"
 "http://www.w3.org/TR/2001/REC-SVG-20010904/DTD/svg10.dtd">
<svg version="1.0" xmlns="http://www.w3.org/2000/svg"
 width="1024.000000pt" height="1024.000000pt" viewBox="0 0 1024.000000 1024.000000"
 preserveAspectRatio="xMidYMid meet">
<metadata>
Created by potrace 1.14, written by Peter Selinger 2001-2017
</metadata>
<g transform="translate(0.000000,1024.000000) scale(0.100000,-0.100000)"
fill="#000000" stroke="none">
<path d="M0 5375 c0 -4722 1 -4865 18 -4865 11 0 27 -8 36 -19 14 -15 16 -31
10 -100 -7 -81 -7 -81 -35 -81 l-29 0 0 -155 0 -155 4475 0 4475 0 -30 63
c-17 34 -35 69 -40 78 -54 99 -106 204 -125 254 -12 33 -36 84 -54 113 -17 29
-34 65 -37 80 -4 15 -15 35 -25 45 -11 10 -19 30 -19 46 0 19 -9 34 -29 49
-16 12 -35 38 -41 59 -7 21 -25 54 -40 74 -53 67 -16 114 57 72 32 -18 92 -96
127 -165 13 -25 39 -72 58 -104 20 -33 39 -75 43 -94 13 -61 75 -221 135 -345
31 -66 68 -144 80 -172 l23 -53 604 0 603 0 0 2348 c0 2241 -1 2348 -18 2377
-10 17 -24 46 -32 65 -20 52 -108 206 -154 273 -23 32 -48 69 -57 83 -9 13
-29 39 -45 56 -16 18 -61 75 -101 128 -40 52 -76 100 -80 105 -70 83 -149 171
-157 174 -5 2 -19 14 -31 27 -12 13 -27 24 -34 24 -6 0 -11 4 -11 10 0 5 -15
13 -32 18 -21 5 -34 16 -37 28 -2 10 -6 21 -10 24 -3 3 -15 21 -26 41 -20 37
-57 88 -85 118 -9 9 -29 35 -45 56 -16 22 -38 49 -49 61 -35 36 -79 87 -116
134 -52 67 -91 102 -130 116 -31 11 -35 10 -38 -5 -2 -10 13 -53 33 -97 57
-124 76 -166 96 -209 10 -22 27 -83 39 -135 12 -52 26 -103 31 -113 13 -24 -7
-61 -28 -52 -9 3 -36 10 -61 16 -24 5 -50 15 -57 23 -8 7 -39 14 -73 15 -70 2
-68 5 -82 -117 -14 -117 -50 -221 -50 -143 0 17 -9 60 -20 94 -11 34 -27 86
-36 115 -10 28 -20 52 -24 52 -4 0 -13 13 -20 29 -13 32 -77 66 -116 63 -13
-1 -24 3 -24 8 0 6 -7 10 -16 10 -11 0 -14 -5 -9 -17 13 -33 29 -133 22 -139
-4 -4 -42 30 -85 74 -43 45 -84 82 -90 82 -7 0 -12 5 -12 10 0 6 -5 10 -12 10
-11 0 -40 13 -220 98 -32 15 -55 32 -53 39 5 17 -6 24 -20 13 -7 -6 -21 -7
-31 -3 -17 6 -16 8 6 14 23 7 23 7 -7 8 -26 1 -30 4 -26 21 3 11 0 20 -6 20
-6 0 -11 -7 -11 -15 0 -8 -4 -15 -10 -15 -5 0 -10 9 -10 20 0 11 -6 20 -14 20
-7 0 -19 6 -25 14 -6 7 -22 11 -36 8 -15 -2 -25 0 -25 7 0 6 -11 11 -25 11
-14 0 -24 5 -23 11 2 6 -3 14 -11 17 -10 3 -12 0 -8 -11 4 -10 -2 -16 -18 -19
-29 -6 -50 6 -40 22 6 9 9 9 16 -1 7 -11 9 -11 9 1 0 8 10 20 22 25 16 7 22
19 23 42 0 18 4 32 10 30 5 -1 8 -8 7 -16 -2 -9 6 -6 23 7 19 15 32 19 44 13
10 -6 23 -6 33 0 9 5 37 10 62 11 25 1 42 5 38 9 -12 12 -101 39 -127 39 -17
0 -32 11 -47 35 -29 44 -77 64 -132 54 -24 -4 -43 -3 -47 2 -3 5 -13 7 -21 4
-9 -4 -18 0 -21 9 -11 27 -24 17 -19 -14 4 -25 0 -31 -23 -40 -14 -5 -38 -10
-53 -10 -21 0 -24 -2 -12 -10 13 -8 12 -12 -7 -29 -11 -11 -27 -33 -34 -50
-15 -34 -35 -40 -42 -13 -4 16 -5 16 -6 0 -2 -27 -58 -18 -92 14 -44 41 -156
104 -166 94 -3 -3 -16 8 -30 25 -14 16 -30 29 -36 29 -13 0 -30 8 -119 58 -31
18 -71 32 -88 32 -17 0 -29 4 -26 9 6 9 -42 24 -60 19 -5 -1 -28 8 -51 20 -23
12 -52 22 -64 22 -13 0 -49 9 -82 21 -43 15 -62 18 -70 10 -8 -8 -6 -15 8 -25
11 -8 23 -12 27 -10 4 2 14 -6 22 -18 9 -12 16 -18 16 -11 0 7 15 5 44 -5 25
-9 42 -20 40 -24 -5 -7 42 -18 96 -22 20 -1 41 -13 60 -32 15 -17 43 -36 61
-43 65 -25 83 -35 185 -111 23 -16 45 -30 51 -30 26 0 113 -120 113 -156 0
-12 7 -54 16 -93 14 -63 19 -72 43 -77 60 -13 64 -16 50 -25 -8 -5 -24 -9 -35
-9 -12 0 -24 -7 -28 -15 -7 -19 -37 -19 -62 0 -10 8 -29 15 -41 15 -13 0 -23
4 -23 9 0 4 -34 11 -76 13 -42 3 -79 10 -83 16 -3 5 -24 13 -46 17 -81 13
-128 30 -133 48 -2 9 -13 17 -23 17 -10 0 -20 4 -24 9 -3 5 -19 12 -35 16 -17
4 -44 18 -60 32 -24 20 -33 23 -45 13 -15 -13 -42 -3 -65 24 -7 9 -21 16 -30
16 -10 0 -20 6 -22 13 -3 8 -29 12 -81 12 -55 0 -77 4 -77 13 0 6 -9 12 -19
12 -11 0 -22 4 -25 9 -3 4 -28 11 -56 14 -28 3 -57 13 -66 22 -8 8 -26 15 -39
15 -13 0 -25 6 -28 13 -3 9 -9 9 -26 -1 -17 -10 -25 -10 -44 2 -12 7 -40 19
-62 26 -22 7 -50 20 -63 28 -13 8 -40 18 -60 23 -122 26 -269 67 -307 84 -16
7 -43 17 -60 21 -16 4 -46 17 -65 29 -19 12 -41 20 -47 18 -7 -3 -26 5 -42 16
-16 12 -37 21 -46 21 -26 0 -98 22 -115 35 -8 6 -40 17 -70 24 -30 7 -66 16
-80 21 -14 4 -52 16 -85 25 -83 23 -115 36 -115 46 0 5 -22 9 -49 9 -28 0 -53
5 -56 10 -3 6 -17 10 -30 10 -13 0 -25 5 -27 12 -3 8 -27 11 -75 10 -43 -2
-86 3 -109 12 -22 8 -57 17 -79 21 -22 4 -44 10 -50 13 -11 7 -10 7 -125 28
-47 9 -114 18 -149 21 -63 5 -64 5 -58 -19 4 -12 7 -26 7 -29 0 -4 16 -14 35
-23 43 -21 38 -32 -15 -41 -48 -8 -52 -21 -7 -30 17 -4 37 -11 42 -15 6 -4 54
-24 108 -44 128 -48 206 -80 293 -122 39 -19 75 -34 80 -34 5 0 20 -9 34 -20
14 -11 33 -20 43 -20 9 0 17 -5 17 -12 0 -6 3 -8 6 -5 9 9 121 -52 158 -85 17
-16 36 -28 42 -28 7 0 15 -7 18 -16 3 -8 10 -13 15 -10 5 4 11 3 13 -1 1 -5
22 -21 46 -37 23 -16 42 -33 42 -37 0 -5 4 -9 9 -9 5 0 28 -18 52 -40 24 -22
49 -40 55 -40 5 0 20 -9 31 -20 12 -11 91 -61 175 -111 84 -51 205 -126 268
-168 63 -42 135 -86 160 -99 24 -12 49 -27 54 -32 6 -6 25 -10 43 -10 28 0 34
-5 52 -44 19 -43 20 -44 58 -40 34 5 40 2 61 -28 25 -38 27 -48 11 -48 -5 0
-8 4 -4 9 3 5 1 12 -4 15 -14 9 -41 -4 -41 -20 0 -12 -4 -15 -25 -14 -3 0 -18
-6 -34 -15 -23 -11 -28 -19 -23 -37 3 -13 10 -26 16 -30 6 -4 7 -10 3 -14 -10
-10 -80 -13 -92 -4 -5 4 -18 7 -28 7 -13 0 -16 -6 -11 -21 3 -12 7 -25 8 -31
1 -13 -105 -19 -309 -19 -148 1 -199 5 -345 33 -103 20 -165 31 -199 36 -18 3
-42 10 -52 16 -11 5 -23 8 -28 5 -5 -3 -41 6 -80 19 -39 14 -110 29 -157 34
-47 5 -91 14 -97 20 -6 6 -24 11 -40 11 -16 0 -43 6 -60 14 -18 7 -59 19 -92
26 -33 7 -80 21 -105 31 -42 17 -85 30 -170 48 -19 4 -53 15 -75 25 -90 40
-106 46 -116 46 -6 0 -25 6 -42 14 -56 24 -102 41 -113 41 -12 0 -86 30 -126
51 -14 8 -31 14 -37 14 -6 0 -34 11 -63 24 -29 13 -96 43 -148 66 -52 23 -131
59 -175 80 -99 49 -215 103 -364 169 -62 28 -134 65 -158 81 -24 17 -46 30
-49 30 -3 0 -28 17 -57 38 -29 22 -66 46 -83 55 -17 9 -52 36 -79 61 -29 27
-58 46 -71 46 -30 0 -25 -15 33 -98 115 -162 301 -303 563 -427 58 -27 122
-59 142 -72 51 -31 216 -105 383 -170 123 -49 355 -145 525 -218 30 -13 96
-38 145 -55 50 -18 114 -41 142 -51 31 -11 79 -19 117 -19 84 0 159 -18 335
-81 163 -58 292 -92 425 -114 50 -8 174 -28 276 -45 102 -16 239 -34 305 -40
308 -26 368 -33 480 -56 66 -13 139 -24 162 -24 86 0 224 -39 364 -103 31 -14
59 -24 62 -21 2 3 30 -7 61 -21 30 -14 70 -28 88 -32 18 -3 44 -14 58 -23 14
-9 31 -15 38 -13 7 3 12 -5 13 -19 1 -20 2 -21 6 -3 9 38 21 37 62 -5 35 -37
49 -44 91 -48 36 -3 50 -1 50 8 0 7 -7 10 -15 6 -8 -3 -25 -1 -37 4 -20 8 -19
9 13 9 33 1 37 4 41 30 3 22 1 28 -10 23 -12 -4 -14 0 -10 16 5 17 2 22 -13
22 -12 0 -19 7 -19 20 0 12 -10 31 -22 44 -23 24 -35 40 -66 88 -9 16 -24 28
-32 28 -14 0 -36 22 -75 76 -11 16 -27 35 -35 44 -8 8 -14 22 -12 31 2 10 -6
19 -18 22 -11 3 -20 10 -20 16 0 6 7 8 16 4 8 -3 27 0 40 8 21 11 27 11 34 -1
7 -12 10 -12 16 3 3 9 13 17 21 17 12 0 14 8 9 35 -5 27 -4 35 8 35 8 0 21 3
29 6 9 3 18 -2 21 -14 4 -10 32 -46 64 -79 31 -33 92 -97 134 -141 43 -45 82
-82 88 -82 5 0 10 -9 10 -20 0 -12 7 -20 16 -20 9 0 27 -10 39 -22 12 -13 35
-34 49 -47 15 -13 25 -30 22 -38 -3 -7 -2 -13 3 -13 4 0 28 -19 54 -43 92 -85
125 -110 148 -114 34 -5 41 -25 16 -42 l-22 -16 30 -5 c17 -4 29 -11 27 -18
-1 -7 2 -12 8 -12 14 0 13 23 -2 38 -6 6 -8 15 -4 19 9 9 29 -22 33 -52 2 -11
8 -21 13 -23 18 -6 10 -22 -10 -22 -22 0 -27 -15 -8 -23 10 -4 10 -8 -1 -15
-9 -6 -20 -7 -30 -1 -9 5 -28 13 -43 19 -16 5 -28 16 -28 24 0 7 -7 16 -15 20
-18 7 -18 -18 0 -89 11 -45 13 -47 14 -17 l1 33 30 -16 c31 -16 41 -45 16 -45
-7 0 -19 -6 -25 -14 -13 -15 7 -59 54 -122 21 -27 23 -39 18 -86 -3 -34 -1
-63 7 -77 9 -19 9 -26 -4 -40 -9 -10 -16 -24 -16 -32 0 -12 2 -12 9 0 7 11 11
9 20 -8 8 -15 9 -21 1 -21 -7 0 -5 -9 4 -22 11 -15 12 -26 6 -39 -6 -10 -7
-25 -4 -34 4 -9 0 -21 -10 -28 -9 -7 -23 -29 -30 -50 -7 -22 -23 -44 -37 -51
-38 -18 -34 -39 12 -61 40 -19 41 -19 55 0 8 10 14 25 14 32 0 7 7 13 16 13 8
0 12 5 9 10 -3 6 1 10 10 10 9 0 13 -4 10 -10 -3 -5 -1 -10 4 -10 6 0 11 -18
11 -40 0 -23 5 -40 11 -40 6 0 9 -6 6 -14 -3 -8 -2 -27 3 -43 4 -15 9 -22 9
-15 1 6 10 12 21 12 24 0 24 3 5 -50 -13 -37 -13 -44 0 -63 9 -13 15 -16 15
-8 0 8 2 12 5 9 8 -7 -16 -68 -26 -68 -5 0 -9 -13 -9 -28 0 -31 -26 -62 -52
-62 -21 0 -34 -18 -41 -57 -7 -34 8 -44 30 -22 6 6 16 8 22 5 15 -9 14 -49 -1
-64 -17 -17 3 -14 26 3 13 10 23 11 31 5 8 -7 15 -2 23 15 6 14 18 25 27 25
19 0 20 -19 1 -26 -8 -3 -14 -14 -13 -25 1 -20 30 -35 47 -24 5 3 10 1 10 -4
0 -6 -18 -11 -40 -11 -22 0 -40 -5 -40 -11 0 -6 11 -8 28 -5 31 7 67 -9 42
-19 -8 -3 -16 -18 -17 -34 -1 -16 -14 -42 -29 -57 -23 -26 -24 -29 -8 -33 11
-2 29 9 45 27 25 28 59 52 73 52 3 0 0 -11 -6 -25 -6 -14 -15 -25 -20 -25 -4
0 -8 -13 -8 -28 0 -20 -12 -41 -36 -66 -20 -20 -34 -40 -30 -43 3 -3 23 4 46
16 51 26 50 26 50 -5 0 -14 4 -34 10 -44 8 -15 6 -20 -10 -25 -11 -3 -20 -13
-20 -22 0 -9 -6 -13 -15 -9 -11 4 -15 -2 -15 -24 0 -23 -5 -30 -19 -30 -10 0
-48 -28 -84 -62 -35 -35 -75 -73 -88 -85 -28 -25 -48 -49 -52 -60 -4 -14 -68
-42 -82 -36 -8 2 -17 13 -20 24 -9 27 -32 24 -39 -5 -5 -20 -12 -24 -37 -22
-21 2 -33 -4 -40 -16 -6 -11 -15 -16 -22 -12 -7 4 -9 4 -5 -1 4 -4 -2 -15 -14
-25 -14 -11 -19 -23 -15 -34 9 -22 31 -16 36 9 2 10 9 24 16 31 10 10 15 8 24
-12 6 -14 11 -33 10 -42 0 -10 -3 -12 -6 -4 -8 20 -43 14 -43 -8 0 -11 -6 -20
-13 -20 -7 0 -18 -13 -24 -30 -7 -18 -7 -30 -2 -30 6 0 7 -5 3 -11 -3 -6 -17
-8 -30 -5 -20 5 -24 2 -30 -28 -9 -48 1 -59 35 -41 16 8 31 21 34 30 4 8 14
15 22 15 13 0 56 38 211 187 7 7 17 13 23 13 6 0 11 4 11 10 0 12 6 18 107
124 41 44 82 90 90 103 8 13 20 23 25 23 5 0 23 14 41 30 18 17 43 33 57 37
14 3 31 12 38 20 16 15 38 17 47 3 3 -5 1 -10 -4 -10 -6 0 -11 -6 -11 -13 0
-7 -17 -21 -37 -32 -51 -27 -119 -95 -95 -95 16 -1 15 -2 -2 -15 -10 -8 -22
-12 -26 -10 -4 3 -15 -6 -24 -20 -9 -14 -21 -25 -27 -25 -9 0 -40 -26 -112
-95 -17 -16 -45 -40 -61 -52 -16 -12 -55 -47 -86 -78 -32 -30 -63 -55 -69 -55
-6 0 -11 -6 -11 -14 0 -7 -18 -29 -40 -49 -22 -19 -40 -37 -40 -40 0 -3 -13
-19 -29 -36 -36 -39 -47 -67 -31 -86 17 -20 48 -2 133 77 106 99 107 100 107
75 0 -7 -10 -23 -22 -34 -13 -11 -50 -51 -83 -87 -33 -37 -66 -74 -73 -82 -8
-8 -11 -23 -7 -34 6 -18 3 -20 -22 -15 -25 5 -26 4 -5 -4 41 -19 25 -39 -49
-64 -51 -17 -119 -60 -132 -83 -4 -8 -21 -14 -37 -14 -34 0 -53 -27 -48 -70 2
-16 -1 -29 -5 -29 -30 -1 -49 -65 -26 -88 7 -7 1 -17 -23 -32 -85 -54 -111
-116 -78 -188 10 -22 22 -43 28 -46 5 -4 7 -29 4 -57 l-5 -50 37 0 c29 0 38
-5 45 -22 l8 -22 12 22 c16 30 46 30 37 -1 -3 -12 -9 -48 -13 -79 -4 -39 -10
-58 -19 -58 -8 0 -14 -9 -14 -20 0 -11 -6 -20 -14 -20 -14 0 -36 -54 -61 -145
-7 -27 -14 -40 -14 -27 -1 29 -15 28 -39 -3 -11 -14 -25 -25 -31 -25 -6 0 -11
-4 -11 -10 0 -5 -18 -10 -40 -10 -22 0 -40 5 -40 10 0 6 -4 10 -9 10 -16 0
-71 61 -71 79 0 9 -13 30 -29 45 -16 16 -27 35 -24 42 3 8 0 21 -7 29 -7 8
-20 30 -29 48 -9 17 -20 32 -26 33 -22 2 -45 17 -45 30 0 9 -11 14 -28 14 -16
0 -34 8 -42 20 -8 11 -20 20 -28 20 -7 0 -16 8 -19 18 -4 9 -15 23 -24 30 -13
9 -19 29 -21 70 -2 39 -7 56 -15 54 -7 -1 -13 5 -13 13 0 8 7 15 15 15 24 0
18 15 -23 52 -20 19 -42 43 -48 54 -6 10 -21 20 -33 22 -12 2 -19 8 -16 13 3
5 -1 6 -9 3 -9 -3 -24 -3 -34 2 -22 9 -28 11 -47 13 -8 0 -15 7 -15 14 0 17
-74 52 -94 44 -8 -3 -20 1 -26 9 -9 9 -33 14 -74 14 -56 0 -65 3 -91 30 -19
20 -24 30 -14 31 8 0 1 5 -16 11 -16 6 -36 17 -43 25 -7 7 -20 13 -28 13 -8 0
-14 10 -14 25 0 15 -6 25 -15 25 -12 0 -45 81 -45 112 0 15 41 8 68 -10 40
-28 72 -34 72 -14 0 10 -7 26 -15 36 -9 11 -15 41 -15 68 0 26 -4 48 -10 48
-5 0 -10 17 -10 38 0 39 -29 97 -30 60 0 -22 -14 -23 -37 -3 -67 59 -83 67
-120 60 -31 -5 -44 -1 -72 20 -19 14 -40 25 -46 25 -6 0 -21 9 -33 21 -28 25
-47 16 -30 -14 16 -29 18 -60 4 -69 -23 -16 -45 -7 -86 34 -37 37 -40 43 -24
49 70 23 69 13 11 97 -55 80 -72 104 -97 132 -8 9 -51 63 -95 121 -43 57 -85
110 -92 117 -6 7 -49 87 -94 178 -81 161 -99 191 -99 160 0 -8 5 -18 10 -21 6
-3 10 -16 10 -28 0 -13 7 -33 16 -46 9 -13 35 -60 57 -104 22 -45 53 -99 68
-121 16 -21 29 -43 29 -48 0 -5 4 -14 10 -21 24 -29 118 -155 126 -169 9 -15
87 -109 112 -134 15 -15 27 -68 19 -87 -8 -22 -84 -9 -90 15 -3 11 -10 17 -15
14 -5 -3 -12 3 -15 14 -3 12 -14 20 -25 20 -22 0 -102 69 -102 88 0 7 -4 12
-10 12 -5 0 -10 -4 -10 -10 0 -5 -9 -10 -21 -10 -11 0 -28 -4 -38 -10 -20 -10
-18 -13 -62 90 -13 30 -26 57 -29 60 -17 16 -82 169 -76 179 4 6 1 11 -7 11
-9 0 -17 15 -21 40 -4 26 -11 40 -21 40 -8 0 -15 7 -15 15 0 8 -7 15 -15 15
-8 0 -18 12 -21 28 -4 15 -20 42 -35 61 -15 19 -26 38 -23 43 10 15 -16 36
-36 31 -12 -3 -22 1 -26 11 -3 9 -12 16 -19 16 -7 0 -15 7 -19 15 -3 8 -11 15
-18 15 -10 0 -10 -2 -1 -8 7 -5 9 -13 3 -22 -6 -10 -12 -11 -22 -2 -11 9 -17
9 -26 0 -9 -9 -12 -9 -12 1 0 14 -37 51 -50 51 -4 0 -11 15 -16 33 -8 26 -15
33 -42 35 -18 2 -32 -1 -32 -7 0 -6 8 -11 18 -11 9 0 23 -10 31 -21 11 -18 11
-23 -1 -30 -28 -18 -60 2 -63 42 -2 22 -33 59 -50 59 -7 0 -15 -9 -18 -20 -5
-18 -8 -19 -30 -9 -14 6 -30 21 -37 33 -6 11 -25 31 -41 44 l-29 24 -9 -24
c-6 -13 -10 -17 -10 -10 -1 6 -8 12 -16 12 -8 0 -32 9 -54 21 -22 11 -45 18
-51 14 -6 -4 -32 11 -58 32 -26 22 -55 42 -66 46 -10 4 -16 13 -13 22 4 9 1
12 -9 8 -8 -3 -13 -12 -10 -19 7 -18 -10 -27 -39 -20 -15 4 -22 11 -19 20 3 7
-1 20 -8 28 -18 19 -36 48 -49 78 -16 39 -68 82 -90 75 -15 -5 -19 -1 -19 19
0 14 -4 28 -10 31 -5 3 -10 15 -10 27 0 11 -8 22 -19 25 -11 3 -24 18 -30 33
-5 15 -19 31 -30 35 -12 3 -21 12 -21 20 0 7 -10 19 -22 28 -13 8 -32 32 -43
53 -11 22 -28 45 -37 52 -10 7 -18 22 -18 33 0 11 -7 19 -16 19 -23 0 -72 37
-79 60 -3 10 -15 22 -26 25 -10 4 -19 11 -19 17 0 6 -27 37 -60 70 -33 32 -60
64 -60 71 0 6 -16 23 -34 37 -19 14 -42 37 -50 52 -9 15 -25 30 -36 33 -11 4
-20 11 -20 16 0 5 -10 23 -22 40 -19 25 -21 34 -11 59 7 18 8 43 3 64 -4 19
-5 37 -3 40 10 9 -19 76 -33 76 -7 0 -22 17 -33 38 -11 20 -20 31 -21 23 0
-11 -5 -10 -19 5 -10 10 -17 22 -15 26 2 3 -12 22 -32 42 -42 42 -44 79 -5 84
30 5 62 33 43 40 -6 2 -12 14 -12 27 0 13 -11 40 -24 59 -20 30 -26 33 -36 21
-10 -12 -15 -12 -36 2 -13 8 -24 24 -24 34 0 19 -44 69 -60 69 -5 0 -18 9 -29
21 -23 25 -101 45 -111 28 -5 -7 -13 -8 -26 -1 -11 5 -31 15 -46 21 -18 7 -28
18 -28 31 0 11 -4 20 -10 20 -5 0 -10 -7 -10 -16 0 -8 -5 -12 -11 -9 -6 4 -8
9 -5 12 9 9 -14 43 -29 43 -8 0 -15 5 -15 10 0 6 -6 10 -14 10 -8 0 -32 17
-54 38 -30 29 -38 42 -31 55 6 10 5 18 -1 22 -5 3 -10 15 -10 26 0 17 -10 23
-31 21 -4 -1 -5 8 -2 19 3 11 -2 28 -11 38 -9 10 -14 20 -11 23 3 3 -8 11 -24
18 -17 7 -36 25 -42 40 -9 19 -18 26 -30 23 -13 -4 -20 2 -25 22 -5 20 -9 24
-16 13 -7 -10 -13 -8 -26 12 -9 13 -29 37 -44 52 -16 16 -28 35 -28 43 0 8 -6
15 -14 15 -8 0 -21 21 -31 50 -15 46 -34 67 -60 68 -5 1 -12 8 -13 17 -4 18
-39 73 -73 115 -11 14 -23 30 -27 36 -14 22 -68 40 -117 39 -44 -1 -55 3 -93
36 -62 54 -123 64 -194 32 -36 -15 -40 -15 -77 2 -46 20 -152 129 -180 183
-10 20 -31 50 -46 66 -22 24 -31 27 -58 22 -18 -4 -33 -11 -35 -16 -5 -13 -39
-13 -65 2 -12 6 -47 37 -78 70 -30 32 -61 58 -67 58 -7 0 -15 6 -18 14 -3 8
-18 19 -34 26 -61 25 -92 100 -54 131 27 22 84 38 166 45 77 6 80 6 116 -22
71 -56 103 -61 166 -23 42 25 58 67 42 117 -7 24 -7 39 2 52 6 11 9 26 6 34
-6 16 6 25 43 32 14 3 41 11 61 19 28 12 32 18 22 29 -15 19 -88 43 -175 57
-53 8 -96 8 -175 -1 -175 -20 -268 -23 -300 -10 -17 7 -30 15 -30 19 1 23 68
75 131 102 188 78 251 88 414 66 126 -17 190 -31 240 -52 17 -7 64 -25 105
-40 41 -15 98 -38 127 -51 28 -13 56 -24 61 -24 5 0 31 -9 57 -21 31 -14 58
-19 79 -15 30 6 31 8 34 61 2 31 12 81 23 113 11 31 29 89 39 127 36 135 58
200 84 245 14 25 28 50 30 55 11 26 41 131 40 143 -1 6 -2 18 -3 25 0 6 -10
-3 -21 -20 -16 -27 -26 -33 -56 -33 -19 0 -45 5 -56 11 -15 8 -22 8 -27 0 -4
-6 -70 -18 -146 -27 -77 -9 -150 -23 -162 -30 -12 -8 -49 -14 -83 -14 -53 0
-60 -2 -60 -20 0 -11 -4 -20 -10 -20 -5 0 -19 9 -30 20 -26 26 -40 25 -40 -1
0 -17 -5 -20 -37 -17 -27 2 -39 8 -41 21 -2 12 3 17 17 17 25 0 27 13 5 31
-13 10 -17 10 -24 -1 -7 -12 -14 -10 -34 10 -34 31 -33 40 4 40 37 0 37 5 0
37 -37 30 -38 43 -5 43 23 0 25 4 25 40 0 39 0 40 -37 40 -29 0 -45 8 -75 37
-23 23 -38 31 -38 22 0 -20 -169 -20 -194 0 -14 12 -16 12 -10 -3 3 -9 1 -16
-5 -16 -6 0 -11 9 -11 20 0 11 -4 20 -10 20 -5 0 -10 -9 -10 -20 0 -11 -4 -20
-8 -20 -20 0 -29 25 -24 65 2 24 1 82 -3 129 l-7 86 -29 0 c-16 0 -29 5 -29
10 0 6 -3 9 -7 8 -5 -2 -8 0 -8 3 0 3 -6 13 -14 22 -17 21 -58 22 -77 2 -9 -8
-20 -15 -26 -15 -5 0 -8 7 -4 15 4 13 -8 15 -77 15 -57 0 -77 3 -67 10 13 8
12 10 -2 10 -10 0 -18 -4 -18 -8 0 -12 -70 -43 -81 -37 -11 8 -79 -16 -79 -27
0 -4 -7 -8 -16 -8 -10 0 -14 6 -11 14 3 8 -3 22 -14 32 -14 12 -19 30 -19 66
0 26 -4 48 -10 48 -5 0 2 11 15 25 14 13 25 31 25 40 0 8 7 15 15 15 8 0 15 8
15 18 0 10 4 22 8 28 5 5 17 39 26 76 10 37 24 72 32 79 8 6 14 26 14 45 0 18
5 36 11 39 5 4 8 14 6 23 -2 10 2 28 9 42 20 42 20 86 0 109 -17 19 -17 21 -3
21 21 0 21 1 3 35 -8 14 -17 22 -20 16 -11 -18 -80 -8 -84 12 -2 12 3 17 17
17 18 0 21 6 20 48 -1 27 4 58 10 70 6 11 11 31 11 44 0 13 14 37 30 55 17 18
33 46 37 64 3 17 12 33 19 36 8 3 14 11 14 19 0 16 20 56 33 65 5 3 8 9 7 13
-1 4 0 20 4 36 4 23 11 30 28 30 19 0 27 10 41 50 10 27 24 56 32 64 8 8 15
24 15 36 0 12 9 33 20 47 11 14 20 36 20 48 0 13 18 50 40 83 22 33 40 62 40
66 0 3 -9 6 -20 6 -33 0 -23 16 23 38 23 12 36 21 30 22 -15 0 -18 40 -3 40 6
0 10 14 10 30 0 20 5 30 15 30 12 0 15 16 15 80 l0 80 -495 0 -495 0 0 -4865z
m880 2905 c0 -5 -5 -10 -11 -10 -5 0 -7 5 -4 10 3 6 8 10 11 10 2 0 4 -4 4
-10z m900 -609 c0 -6 -4 -13 -10 -16 -5 -3 -10 1 -10 9 0 9 5 16 10 16 6 0 10
-4 10 -9z m300 -1841 c0 -5 -2 -10 -4 -10 -3 0 -8 5 -11 10 -3 6 -1 10 4 10 6
0 11 -4 11 -10z m5224 4 c9 -3 13 -10 10 -15 -8 -14 -31 -11 -38 6 -6 16 3 19
28 9z m50 -33 c4 -5 2 -11 -4 -13 -5 -1 -7 -14 -3 -26 5 -20 11 -23 33 -18 24
4 27 2 23 -14 -3 -11 -3 -27 1 -35 5 -14 8 -14 32 1 l26 17 -8 -39 c-3 -21 -9
-42 -11 -46 -6 -11 -43 -10 -43 2 0 5 -16 17 -35 26 -19 9 -35 23 -35 31 0 8
-5 11 -11 7 -8 -5 -10 1 -7 21 4 18 0 33 -12 45 -18 18 -18 19 3 34 25 17 43
20 51 7z m855 -152 c7 11 11 9 20 -7 6 -11 11 -23 11 -26 0 -6 -52 15 -60 25
-3 3 -12 9 -20 12 -12 4 -11 6 3 6 9 1 17 7 18 14 0 6 5 1 10 -13 8 -19 12
-21 18 -11z m1277 22 c-4 -5 -2 -12 4 -16 5 -3 10 -15 10 -27 0 -11 9 -33 21
-49 11 -16 22 -41 25 -56 3 -14 9 -33 14 -42 8 -16 13 -84 11 -163 -1 -27 -5
-38 -16 -38 -8 0 -15 6 -15 14 0 7 -6 19 -14 25 -8 7 -17 24 -21 39 -4 15 -13
34 -21 43 -8 8 -17 38 -20 65 -4 27 -10 51 -14 54 -7 6 -40 123 -40 143 0 8
15 14 41 16 24 1 38 -2 35 -8z m-1976 -80 c0 -5 -9 -7 -20 -4 -11 3 -20 7 -20
9 0 2 9 4 20 4 11 0 20 -4 20 -9z m76 -18 c17 -64 126 -258 168 -295 10 -10
15 -18 11 -18 -5 0 -2 -6 6 -12 8 -7 33 -35 55 -63 21 -27 52 -61 68 -75 17
-14 39 -35 50 -46 42 -44 130 -91 166 -90 33 2 49 -8 50 -28 0 -11 -134 2
-169 17 -14 6 -48 31 -75 54 -26 24 -53 43 -58 43 -19 0 -125 121 -236 268 -9
13 -28 37 -43 55 -14 18 -43 59 -64 92 -21 33 -42 62 -47 63 -16 7 -8 34 8 28
9 -3 27 3 41 14 36 28 61 26 69 -7z m1784 -116 c39 -58 51 -97 30 -97 -5 0
-10 -9 -10 -20 0 -27 -41 -27 -90 1 -32 18 -39 28 -44 63 -5 28 -1 54 9 79 15
36 15 37 -7 37 -13 0 -30 5 -38 10 -11 7 -5 10 23 10 21 0 37 5 37 12 0 19 46
-30 90 -95z m-556 -72 c-5 -13 -34 -30 -34 -19 0 3 5 14 11 25 11 22 31 17 23
-6z m-789 -266 c4 -6 13 -8 20 -5 7 2 17 0 23 -6 14 -14 145 -20 177 -8 15 6
30 8 33 5 8 -7 -31 -34 -40 -29 -5 3 -8 -2 -8 -10 0 -30 -96 -20 -173 17 -37
18 -65 36 -61 40 10 10 22 9 29 -4z m195 -150 c0 -14 -19 -21 -40 -14 -29 9
-24 20 10 21 17 1 30 -2 30 -7z m-1040 -239 c0 -5 -5 -10 -11 -10 -5 0 -7 5
-4 10 3 6 8 10 11 10 2 0 4 -4 4 -10z m714 -875 c-4 -8 -8 -15 -10 -15 -2 0
-4 7 -4 15 0 8 4 15 10 15 5 0 7 -7 4 -15z m112 -507 c-14 -10 -15 -7 -8 27 6
30 6 30 12 5 4 -14 2 -28 -4 -32z m-28 -77 c3 -8 -1 -12 -9 -9 -7 2 -15 10
-17 17 -3 8 1 12 9 9 7 -2 15 -10 17 -17z m148 -65 c17 -17 18 -26 3 -26 -15
0 -39 26 -32 34 9 9 13 8 29 -8z m-3616 -42 c0 -8 -4 -12 -10 -9 -5 3 -10 10
-10 16 0 5 5 9 10 9 6 0 10 -7 10 -16z m3627 -200 c-3 -3 -12 -4 -19 -1 -8 3
-5 6 6 6 11 1 17 -2 13 -5z m153 -108 c0 -3 -4 -8 -10 -11 -5 -3 -10 -1 -10 4
0 6 5 11 10 11 6 0 10 -2 10 -4z m-40 -176 c0 -5 -7 -10 -15 -10 -9 0 -18 -7
-21 -15 -4 -8 -17 -15 -30 -15 -17 0 -24 -6 -24 -20 0 -11 -4 -20 -8 -20 -11
0 -105 -92 -192 -185 -35 -38 -70 -69 -77 -67 -7 2 -13 -4 -13 -12 0 -9 -9
-21 -20 -28 -11 -7 -20 -18 -20 -25 0 -7 -9 -13 -20 -13 -38 0 -20 26 85 127
58 56 105 104 105 107 0 10 64 68 103 92 20 14 37 28 37 33 0 11 78 58 98 60
6 1 12 -3 12 -9z m67 -66 c-3 -3 -12 -4 -19 -1 -8 3 -5 6 6 6 11 1 17 -2 13
-5z m-37 -21 c0 -15 -45 -53 -62 -53 -10 0 -21 -7 -24 -15 -4 -8 -12 -15 -20
-15 -8 0 -14 7 -14 15 0 8 7 15 15 15 8 0 15 5 15 10 0 6 7 10 15 10 8 0 15 4
15 8 0 5 10 14 23 20 27 13 37 14 37 5z m-596 -129 c3 -8 2 -12 -4 -9 -6 3
-10 10 -10 16 0 14 7 11 14 -7z m455 -25 c-7 -14 -14 -18 -21 -11 -13 13 -2
32 18 32 12 0 13 -4 3 -21z m-102 -75 c-8 -9 -47 -13 -47 -5 0 12 44 30 49 19
1 -5 1 -11 -2 -14z m133 -4 c0 -5 -2 -10 -4 -10 -3 0 -8 5 -11 10 -3 6 -1 10
4 10 6 0 11 -4 11 -10z m-44 -26 c-9 -9 -20 -14 -23 -10 -4 3 2 13 13 20 25
18 31 12 10 -10z m-63 -88 c7 -17 -11 -36 -34 -36 -27 0 -33 20 -13 35 24 18
40 19 47 1z m187 -122 c0 -8 -4 -14 -10 -14 -5 0 -10 9 -10 21 0 11 5 17 10
14 6 -3 10 -13 10 -21z m-310 12 c0 -3 -4 -8 -10 -11 -5 -3 -10 -1 -10 4 0 6
5 11 10 11 6 0 10 -2 10 -4z m255 -73 c-16 -16 -32 -27 -35 -26 -3 1 -12 -4
-20 -10 -9 -7 -8 -4 3 9 9 11 17 26 17 32 0 6 8 13 18 15 41 11 46 6 17 -20z
m-496 -38 c-4 -3 -58 -8 -74 -6 -5 1 3 13 19 26 30 24 30 24 44 4 8 -11 12
-22 11 -24z m-7481 -1645 c20 -19 21 -26 15 -121 -4 -60 -2 -100 3 -98 45 21
84 44 84 51 0 4 -9 12 -19 17 -18 10 -46 69 -37 78 6 7 47 -16 74 -40 26 -24
29 -72 6 -105 -8 -12 -34 -32 -56 -43 -34 -18 -44 -19 -69 -8 -17 6 -34 20
-39 30 -6 10 -10 72 -10 138 0 130 5 141 48 101z"/>
<path d="M8110 5080 c0 -5 5 -10 11 -10 5 0 7 5 4 10 -3 6 -8 10 -11 10 -2 0
-4 -4 -4 -10z"/>
<path d="M7840 10236 c0 -10 114 -116 125 -116 7 0 24 -11 39 -25 24 -22 26
-31 26 -100 0 -60 3 -75 15 -75 13 0 15 -33 15 -240 0 -132 -4 -240 -9 -240
-5 0 -11 -10 -14 -21 -5 -17 -11 -20 -31 -15 -19 5 -29 0 -44 -19 -11 -14 -25
-25 -31 -25 -6 0 -11 -17 -11 -40 0 -31 4 -40 18 -41 12 0 13 -2 3 -6 -20 -8
-71 -55 -71 -65 0 -4 7 -8 15 -8 11 0 15 -11 15 -40 0 -29 -4 -40 -15 -40 -12
0 -15 -16 -15 -80 0 -79 0 -80 25 -80 16 0 25 -6 25 -15 0 -11 11 -15 40 -15
32 0 40 -4 40 -18 0 -11 13 -24 32 -33 17 -8 36 -23 42 -34 6 -10 16 -24 21
-31 6 -6 17 -30 25 -53 11 -34 11 -48 0 -81 -7 -22 -17 -40 -22 -40 -4 0 -8
-9 -8 -19 0 -11 -4 -22 -9 -25 -5 -3 -12 -18 -16 -33 -3 -16 -17 -41 -29 -58
-13 -16 -26 -39 -30 -51 -3 -12 -28 -41 -53 -65 l-47 -44 -113 -4 c-99 -3
-113 -1 -113 13 0 9 -7 16 -15 16 -17 0 -72 55 -79 79 -2 9 -7 33 -11 53 -3
21 -12 44 -20 51 -8 8 -15 35 -16 61 -2 25 -6 46 -11 46 -4 0 -8 14 -8 30 0
17 5 30 10 30 6 0 10 18 10 40 0 39 1 40 33 40 32 0 32 0 29 -42 -4 -43 12
-45 20 -3 2 14 11 20 31 20 16 -1 27 5 27 12 0 7 5 13 10 13 6 0 10 5 10 10 0
5 -3 9 -7 9 -5 -1 -43 -1 -85 0 -62 1 -78 4 -78 16 0 11 -12 15 -45 15 -33 0
-45 -4 -45 -15 0 -11 -11 -15 -39 -15 -29 0 -40 -4 -44 -19 -4 -16 -16 -19
-87 -23 -75 -3 -84 -6 -105 -31 -24 -27 -45 -35 -45 -17 0 6 -18 10 -40 10
-33 0 -40 -3 -40 -20 0 -18 -7 -20 -80 -20 l-80 0 0 -30 c0 -28 -2 -30 -40
-30 -22 0 -40 5 -40 10 0 17 -67 12 -74 -6 -12 -31 -7 -84 8 -84 10 0 16 -13
18 -37 3 -36 5 -38 40 -41 31 -3 37 -7 35 -22 -2 -11 -6 -23 -10 -26 -7 -7 40
-44 56 -44 4 0 7 9 7 19 0 28 17 35 51 21 31 -13 39 -30 13 -30 -8 0 -12 -4
-9 -10 3 -5 13 -10 21 -10 19 0 44 -24 44 -42 1 -18 41 -46 92 -64 23 -8 48
-23 55 -34 8 -11 23 -20 34 -20 10 0 19 -7 19 -15 0 -8 4 -15 9 -15 4 0 24
-13 42 -30 19 -16 39 -30 46 -30 22 0 63 -23 63 -34 0 -7 12 -17 28 -24 56
-25 91 -48 110 -69 11 -13 24 -23 30 -23 6 0 12 -3 14 -7 2 -5 29 -26 61 -47
31 -22 57 -43 57 -48 0 -5 8 -11 18 -15 9 -4 31 -18 48 -32 18 -14 50 -42 74
-61 23 -19 52 -43 65 -55 12 -11 41 -36 64 -55 23 -19 57 -48 75 -65 64 -59
149 -130 160 -134 6 -2 27 -20 48 -40 20 -20 61 -56 92 -81 31 -25 77 -62 102
-82 25 -21 49 -38 55 -38 5 0 17 -8 27 -17 31 -30 113 -97 131 -108 9 -5 41
-33 71 -61 30 -29 71 -64 90 -80 19 -16 39 -34 43 -41 4 -7 12 -13 17 -13 5 0
78 -68 161 -150 167 -167 313 -300 329 -300 5 0 10 -6 10 -13 0 -7 15 -24 33
-37 17 -13 47 -41 65 -62 19 -21 40 -38 48 -38 8 0 14 -5 14 -10 0 -11 43 -55
158 -163 34 -32 62 -62 62 -67 0 -4 11 -15 25 -24 32 -21 110 -99 131 -131 9
-14 21 -25 28 -25 6 0 17 -9 24 -20 7 -11 19 -20 27 -20 8 0 15 -5 15 -10 0
-6 18 -30 40 -53 23 -23 53 -57 68 -75 15 -18 37 -44 50 -59 12 -14 22 -31 22
-38 0 -6 20 -33 45 -58 l45 -47 0 2370 0 2370 -1200 0 c-660 0 -1200 -2 -1200
-4z m270 -556 c0 -64 -3 -80 -15 -80 -12 0 -15 16 -15 80 0 64 3 80 15 80 12
0 15 -16 15 -80z"/>
<path d="M7980 10069 c0 -5 5 -7 10 -4 6 3 10 8 10 11 0 2 -4 4 -10 4 -5 0
-10 -5 -10 -11z"/>
<path d="M7820 9010 c0 -27 0 -53 -1 -57 0 -4 4 -9 10 -11 7 -2 11 18 11 57 0
34 -4 61 -10 61 -5 0 -10 -22 -10 -50z"/>
<path d="M6762 8449 c-11 -17 -9 -19 13 -19 15 0 25 6 25 14 0 22 -25 26 -38
5z"/>
<path d="M3360 8418 c-14 -13 -39 -41 -55 -63 -17 -22 -38 -47 -47 -55 -16
-13 -108 -155 -108 -166 0 -13 -74 -110 -88 -115 -9 -3 -38 5 -65 19 -36 17
-58 22 -81 18 -24 -5 -37 -2 -46 9 -12 14 -15 14 -32 -2 -11 -10 -29 -34 -39
-55 -19 -38 -63 -78 -84 -78 -9 0 -11 17 -7 67 6 80 2 80 -92 1 -60 -51 -213
-228 -245 -284 -9 -15 -22 -35 -30 -45 -7 -9 -26 -45 -42 -80 -29 -66 -58 -99
-89 -99 -10 0 -23 -6 -29 -13 -16 -20 -67 -118 -76 -147 -4 -14 -13 -32 -20
-40 -7 -8 -16 -38 -19 -67 -3 -28 -15 -86 -27 -128 l-21 -77 23 -24 c31 -34
69 -31 122 10 93 71 141 82 235 55 37 -10 78 -19 91 -19 13 0 53 -15 90 -34
68 -36 217 -86 253 -86 14 0 18 -5 14 -15 -4 -10 1 -15 14 -15 11 0 20 -6 20
-14 0 -14 50 -56 67 -56 4 0 7 24 6 54 l-1 53 61 0 c58 -1 92 14 49 21 -34 5
-54 92 -21 92 5 0 4 8 -2 19 -7 10 -9 26 -6 35 4 9 6 19 6 22 0 4 11 14 26 24
17 11 23 20 16 25 -8 4 -5 15 9 32 11 14 20 39 20 54 0 16 4 29 9 29 5 0 11
18 15 39 3 22 12 41 18 44 10 3 10 7 1 18 -15 18 -6 59 13 59 10 0 14 13 14
41 0 28 6 46 17 54 13 10 18 28 18 72 0 57 4 65 46 112 9 10 24 39 34 65 10
25 22 46 26 46 5 0 8 3 7 8 -4 16 26 121 33 116 5 -3 11 7 15 21 4 15 13 25
24 25 22 0 30 19 18 43 -9 18 5 57 22 57 6 0 10 7 10 15 0 8 -6 12 -14 9 -20
-8 -30 28 -12 42 9 6 16 23 16 38 0 22 -4 26 -30 26 -34 0 -90 -46 -90 -74 0
-9 -4 -16 -8 -16 -5 0 -14 -16 -22 -35 -14 -34 -30 -47 -30 -22 0 19 26 100
48 148 89 199 98 230 52 187z m-899 -731 c-28 -56 -51 -111 -51 -122 0 -26
-28 -67 -41 -60 -14 9 -11 60 7 102 43 100 54 121 90 166 57 69 55 35 -5 -86z"/>
<path d="M4877 7720 c-15 -5 -52 -8 -82 -8 -30 0 -60 -4 -67 -10 -7 -6 -30
-13 -50 -17 -21 -4 -38 -11 -38 -17 0 -5 -4 -6 -10 -3 -5 3 -36 1 -67 -5 -32
-7 -69 -13 -83 -15 -14 -1 -63 -11 -110 -23 -47 -11 -105 -23 -130 -27 -25 -4
-74 -20 -110 -35 -36 -16 -96 -41 -135 -55 -67 -25 -145 -62 -155 -74 -8 -9
-42 -30 -68 -41 -12 -5 -25 -17 -28 -25 -4 -8 -14 -15 -23 -15 -21 0 -167
-109 -257 -192 -39 -36 -78 -69 -86 -74 -8 -5 -27 -26 -43 -47 -20 -28 -25
-41 -17 -49 8 -8 15 -8 25 0 8 7 17 9 21 5 4 -4 4 0 0 10 -5 13 0 17 22 19 80
4 114 15 114 33 0 16 28 40 37 31 3 -3 6 -20 6 -36 0 -40 15 -38 68 13 59 56
110 100 130 112 9 6 45 27 78 48 34 20 66 37 71 37 5 0 12 10 15 21 6 17 9 19
16 8 7 -11 9 -10 9 4 0 20 -13 22 -41 6 -15 -7 -24 -7 -34 1 -16 13 -65 -6
-65 -27 0 -8 -15 -20 -33 -28 -19 -8 -39 -21 -47 -29 -7 -9 -18 -16 -25 -16
-22 0 -64 -26 -86 -54 -11 -14 -17 -26 -12 -27 4 0 -1 -4 -12 -8 -11 -5 -23
-7 -27 -4 -9 5 135 153 149 153 4 0 14 9 21 20 7 11 19 20 26 20 8 0 16 4 18
9 5 14 107 74 188 110 129 59 225 105 230 111 3 3 23 6 44 8 22 1 44 6 50 11
6 5 31 12 56 16 25 4 52 13 60 20 8 7 35 15 60 18 25 3 95 12 155 21 205 30
319 38 480 32 171 -6 227 -10 261 -21 12 -4 25 -2 28 4 8 13 -22 29 -65 35
-19 2 -72 13 -119 24 -92 23 -268 35 -313 22z m-1037 -470 c0 -5 -2 -10 -4
-10 -3 0 -8 5 -11 10 -3 6 -1 10 4 10 6 0 11 -4 11 -10z"/>
<path d="M5395 7640 c-3 -5 3 -10 15 -10 12 0 18 5 15 10 -3 6 -10 10 -15 10
-5 0 -12 -4 -15 -10z"/>
<path d="M4030 7375 c0 -8 5 -15 10 -15 6 0 10 7 10 15 0 8 -4 15 -10 15 -5 0
-10 -7 -10 -15z"/>
<path d="M3878 7323 c7 -3 16 -2 19 1 4 3 -2 6 -13 5 -11 0 -14 -3 -6 -6z"/>
<path d="M3476 6972 c-3 -6 1 -13 10 -16 23 -9 28 -2 10 13 -8 7 -17 8 -20 3z"/>
<path d="M6180 6700 c0 -5 7 -10 16 -10 8 0 12 5 9 10 -3 6 -10 10 -16 10 -5
0 -9 -4 -9 -10z"/>
<path d="M6315 6650 c-3 -5 1 -10 10 -10 9 0 13 5 10 10 -3 6 -8 10 -10 10 -2
0 -7 -4 -10 -10z"/>
<path d="M6361 6646 c-14 -17 9 -39 33 -30 19 7 20 16 4 32 -15 15 -23 15 -37
-2z"/>
<path d="M6445 6620 c-17 -27 45 -64 76 -44 15 9 -10 45 -29 42 -9 -1 -22 1
-29 5 -6 4 -14 3 -18 -3z"/>
<path d="M7282 6580 c0 -14 2 -19 5 -12 2 6 2 18 0 25 -3 6 -5 1 -5 -13z"/>
<path d="M7977 6183 c-14 -14 -6 -23 21 -23 16 0 32 -3 36 -7 9 -9 87 -4 106
8 12 7 10 8 -7 9 -12 0 -25 5 -28 10 -7 11 -118 14 -128 3z"/>
<path d="M7862 6129 c2 -6 8 -10 13 -10 5 0 11 4 13 10 2 6 -4 11 -13 11 -9 0
-15 -5 -13 -11z"/>
<path d="M3120 4869 c0 -24 23 -21 28 4 2 10 -3 17 -12 17 -10 0 -16 -9 -16
-21z"/>
<path d="M3177 4823 c-12 -11 -8 -23 8 -23 8 0 15 -8 15 -17 0 -15 2 -16 10
-3 6 10 6 16 0 18 -6 2 -10 10 -10 18 0 15 -12 19 -23 7z"/>
<path d="M7905 3150 c-3 -5 -2 -10 4 -10 5 0 13 5 16 10 3 6 2 10 -4 10 -5 0
-13 -4 -16 -10z"/>
<path d="M4925 3049 c-10 -15 3 -25 16 -12 7 7 7 13 1 17 -6 3 -14 1 -17 -5z"/>
<path d="M4950 3015 c0 -5 5 -17 10 -25 5 -8 10 -10 10 -5 0 6 -5 17 -10 25
-5 8 -10 11 -10 5z"/>
<path d="M7797 2693 c-12 -12 -7 -53 6 -53 19 0 50 37 42 49 -7 12 -38 15 -48
4z"/>
<path d="M5380 2410 c0 -5 5 -10 11 -10 5 0 7 5 4 10 -3 6 -8 10 -11 10 -2 0
-4 -4 -4 -10z"/>
<path d="M5690 2370 c0 -11 5 -20 10 -20 6 0 10 9 10 20 0 11 -4 20 -10 20 -5
0 -10 -9 -10 -20z"/>
</g>
</svg>
